<mxfile host="app.diagrams.net" agent="Mozilla/5.0 (Macintosh; Intel Mac OS X 10_15_7) AppleWebKit/605.1.15 (KHTML, like Gecko) Version/18.5 Safari/605.1.15" version="28.0.4">
  <diagram name="Page-1" id="Tc8tVZ8hQXvlueGHOn-o">
    <mxGraphModel dx="1018" dy="1797" grid="1" gridSize="10" guides="1" tooltips="1" connect="1" arrows="1" fold="1" page="1" pageScale="1" pageWidth="850" pageHeight="1100" math="0" shadow="0">
      <root>
        <mxCell id="0" />
        <mxCell id="1" parent="0" />
        <mxCell id="q3v7LYfXJn45OcVAO_jU-1" value="Swisscom Internet Box" style="image;html=1;image=img/lib/clip_art/networking/Wireless_Router_128x128.png" vertex="1" parent="1">
          <mxGeometry x="385" y="40" width="80" height="80" as="geometry" />
        </mxCell>
        <mxCell id="q3v7LYfXJn45OcVAO_jU-3" value="SW1" style="sketch=0;points=[[0.015,0.015,0],[0.985,0.015,0],[0.985,0.985,0],[0.015,0.985,0],[0.25,0,0],[0.5,0,0],[0.75,0,0],[1,0.25,0],[1,0.5,0],[1,0.75,0],[0.75,1,0],[0.5,1,0],[0.25,1,0],[0,0.75,0],[0,0.5,0],[0,0.25,0]];verticalLabelPosition=bottom;html=1;verticalAlign=top;aspect=fixed;align=center;pointerEvents=1;shape=mxgraph.cisco19.rect;prIcon=l2_switch;fillColor=#FAFAFA;strokeColor=#005073;" vertex="1" parent="1">
          <mxGeometry x="400" y="300" width="50" height="50" as="geometry" />
        </mxCell>
        <mxCell id="q3v7LYfXJn45OcVAO_jU-5" value="RT1" style="sketch=0;points=[[0.5,0,0],[1,0.5,0],[0.5,1,0],[0,0.5,0],[0.145,0.145,0],[0.8555,0.145,0],[0.855,0.8555,0],[0.145,0.855,0]];verticalLabelPosition=bottom;html=1;verticalAlign=top;aspect=fixed;align=center;pointerEvents=1;shape=mxgraph.cisco19.rect;prIcon=router;fillColor=#FAFAFA;strokeColor=#005073;" vertex="1" parent="1">
          <mxGeometry x="400" y="180" width="50" height="50" as="geometry" />
        </mxCell>
        <mxCell id="q3v7LYfXJn45OcVAO_jU-10" value="PVE2" style="sketch=0;points=[[0.015,0.015,0],[0.985,0.015,0],[0.985,0.985,0],[0.015,0.985,0],[0.25,0,0],[0.5,0,0],[0.75,0,0],[1,0.25,0],[1,0.5,0],[1,0.75,0],[0.75,1,0],[0.5,1,0],[0.25,1,0],[0,0.75,0],[0,0.5,0],[0,0.25,0]];verticalLabelPosition=bottom;html=1;verticalAlign=top;aspect=fixed;align=center;pointerEvents=1;shape=mxgraph.cisco19.server;fillColor=#005073;strokeColor=none;" vertex="1" parent="1">
          <mxGeometry x="340" y="420" width="27.500000000000004" height="50" as="geometry" />
        </mxCell>
        <mxCell id="q3v7LYfXJn45OcVAO_jU-11" value="Master&lt;div&gt;TieBreaker&lt;/div&gt;" style="sketch=0;points=[[0.015,0.015,0],[0.985,0.015,0],[0.985,0.985,0],[0.015,0.985,0],[0.25,0,0],[0.5,0,0],[0.75,0,0],[1,0.25,0],[1,0.5,0],[1,0.75,0],[0.75,1,0],[0.5,1,0],[0.25,1,0],[0,0.75,0],[0,0.5,0],[0,0.25,0]];verticalLabelPosition=bottom;html=1;verticalAlign=top;aspect=fixed;align=center;pointerEvents=1;shape=mxgraph.cisco19.server;fillColor=#005073;strokeColor=none;" vertex="1" parent="1">
          <mxGeometry x="411" y="420" width="27.500000000000004" height="50" as="geometry" />
        </mxCell>
        <mxCell id="q3v7LYfXJn45OcVAO_jU-12" value="PVE1" style="sketch=0;points=[[0.015,0.015,0],[0.985,0.015,0],[0.985,0.985,0],[0.015,0.985,0],[0.25,0,0],[0.5,0,0],[0.75,0,0],[1,0.25,0],[1,0.5,0],[1,0.75,0],[0.75,1,0],[0.5,1,0],[0.25,1,0],[0,0.75,0],[0,0.5,0],[0,0.25,0]];verticalLabelPosition=bottom;html=1;verticalAlign=top;aspect=fixed;align=center;pointerEvents=1;shape=mxgraph.cisco19.server;fillColor=#005073;strokeColor=none;" vertex="1" parent="1">
          <mxGeometry x="270" y="420" width="27.500000000000004" height="50" as="geometry" />
        </mxCell>
        <mxCell id="q3v7LYfXJn45OcVAO_jU-13" value="Worker1" style="sketch=0;points=[[0.015,0.015,0],[0.985,0.015,0],[0.985,0.985,0],[0.015,0.985,0],[0.25,0,0],[0.5,0,0],[0.75,0,0],[1,0.25,0],[1,0.5,0],[1,0.75,0],[0.75,1,0],[0.5,1,0],[0.25,1,0],[0,0.75,0],[0,0.5,0],[0,0.25,0]];verticalLabelPosition=bottom;html=1;verticalAlign=top;aspect=fixed;align=center;pointerEvents=1;shape=mxgraph.cisco19.server;fillColor=#005073;strokeColor=none;" vertex="1" parent="1">
          <mxGeometry x="480" y="420" width="27.500000000000004" height="50" as="geometry" />
        </mxCell>
        <mxCell id="q3v7LYfXJn45OcVAO_jU-14" value="Worker2" style="sketch=0;points=[[0.015,0.015,0],[0.985,0.015,0],[0.985,0.985,0],[0.015,0.985,0],[0.25,0,0],[0.5,0,0],[0.75,0,0],[1,0.25,0],[1,0.5,0],[1,0.75,0],[0.75,1,0],[0.5,1,0],[0.25,1,0],[0,0.75,0],[0,0.5,0],[0,0.25,0]];verticalLabelPosition=bottom;html=1;verticalAlign=top;aspect=fixed;align=center;pointerEvents=1;shape=mxgraph.cisco19.server;fillColor=#005073;strokeColor=none;" vertex="1" parent="1">
          <mxGeometry x="550" y="420" width="27.500000000000004" height="50" as="geometry" />
        </mxCell>
        <mxCell id="q3v7LYfXJn45OcVAO_jU-20" style="edgeStyle=orthogonalEdgeStyle;rounded=0;orthogonalLoop=1;jettySize=auto;html=1;endArrow=none;endFill=0;" edge="1" parent="1" source="q3v7LYfXJn45OcVAO_jU-15" target="q3v7LYfXJn45OcVAO_jU-1">
          <mxGeometry relative="1" as="geometry" />
        </mxCell>
        <mxCell id="q3v7LYfXJn45OcVAO_jU-15" value="Internet" style="ellipse;shape=cloud;whiteSpace=wrap;html=1;" vertex="1" parent="1">
          <mxGeometry x="365" y="-100" width="120" height="80" as="geometry" />
        </mxCell>
        <mxCell id="q3v7LYfXJn45OcVAO_jU-21" style="edgeStyle=orthogonalEdgeStyle;rounded=0;orthogonalLoop=1;jettySize=auto;html=1;entryX=0.5;entryY=0;entryDx=0;entryDy=0;entryPerimeter=0;endArrow=none;endFill=0;" edge="1" parent="1" source="q3v7LYfXJn45OcVAO_jU-1" target="q3v7LYfXJn45OcVAO_jU-5">
          <mxGeometry relative="1" as="geometry" />
        </mxCell>
        <mxCell id="q3v7LYfXJn45OcVAO_jU-22" style="edgeStyle=orthogonalEdgeStyle;rounded=0;orthogonalLoop=1;jettySize=auto;html=1;entryX=0.5;entryY=0;entryDx=0;entryDy=0;entryPerimeter=0;endArrow=none;endFill=0;" edge="1" parent="1" source="q3v7LYfXJn45OcVAO_jU-5" target="q3v7LYfXJn45OcVAO_jU-3">
          <mxGeometry relative="1" as="geometry" />
        </mxCell>
        <mxCell id="q3v7LYfXJn45OcVAO_jU-23" style="edgeStyle=orthogonalEdgeStyle;rounded=0;orthogonalLoop=1;jettySize=auto;html=1;entryX=0.5;entryY=0;entryDx=0;entryDy=0;entryPerimeter=0;endArrow=none;endFill=0;" edge="1" parent="1" source="q3v7LYfXJn45OcVAO_jU-3" target="q3v7LYfXJn45OcVAO_jU-11">
          <mxGeometry relative="1" as="geometry" />
        </mxCell>
        <mxCell id="q3v7LYfXJn45OcVAO_jU-24" style="edgeStyle=orthogonalEdgeStyle;rounded=0;orthogonalLoop=1;jettySize=auto;html=1;entryX=0.5;entryY=0;entryDx=0;entryDy=0;entryPerimeter=0;endArrow=none;endFill=0;" edge="1" parent="1" source="q3v7LYfXJn45OcVAO_jU-3" target="q3v7LYfXJn45OcVAO_jU-10">
          <mxGeometry relative="1" as="geometry" />
        </mxCell>
        <mxCell id="q3v7LYfXJn45OcVAO_jU-25" style="edgeStyle=orthogonalEdgeStyle;rounded=0;orthogonalLoop=1;jettySize=auto;html=1;entryX=0.5;entryY=0;entryDx=0;entryDy=0;entryPerimeter=0;endArrow=none;endFill=0;" edge="1" parent="1" source="q3v7LYfXJn45OcVAO_jU-3" target="q3v7LYfXJn45OcVAO_jU-13">
          <mxGeometry relative="1" as="geometry" />
        </mxCell>
        <mxCell id="q3v7LYfXJn45OcVAO_jU-26" style="edgeStyle=orthogonalEdgeStyle;rounded=0;orthogonalLoop=1;jettySize=auto;html=1;entryX=0.5;entryY=0;entryDx=0;entryDy=0;entryPerimeter=0;endArrow=none;endFill=0;" edge="1" parent="1" source="q3v7LYfXJn45OcVAO_jU-3" target="q3v7LYfXJn45OcVAO_jU-14">
          <mxGeometry relative="1" as="geometry" />
        </mxCell>
        <mxCell id="q3v7LYfXJn45OcVAO_jU-27" style="edgeStyle=orthogonalEdgeStyle;rounded=0;orthogonalLoop=1;jettySize=auto;html=1;entryX=0.5;entryY=0;entryDx=0;entryDy=0;entryPerimeter=0;endArrow=none;endFill=0;" edge="1" parent="1" source="q3v7LYfXJn45OcVAO_jU-3" target="q3v7LYfXJn45OcVAO_jU-12">
          <mxGeometry relative="1" as="geometry" />
        </mxCell>
      </root>
    </mxGraphModel>
  </diagram>
</mxfile>
